<?xml version="1.0" standalone="no"?>
<svg xmlns:xlink="http://www.w3.org/1999/xlink" id="wave" style="transform:rotate(0deg); transition: 0.3s" viewBox="0 0 1440 490" version="1.1" xmlns="http://www.w3.org/2000/svg"><defs><linearGradient id="sw-gradient-0" x1="0" x2="0" y1="1" y2="0"><stop stop-color="rgba(211, 226, 248, 1)" offset="0%"/><stop stop-color="rgba(211, 226, 248, 1)" offset="100%"/></linearGradient></defs><path style="transform:translate(0, 0px); opacity:1" fill="url(#sw-gradient-0)" d="M0,196L60,220.5C120,245,240,294,360,310.3C480,327,600,310,720,253.2C840,196,960,98,1080,73.5C1200,49,1320,98,1440,130.7C1560,163,1680,180,1800,220.5C1920,261,2040,327,2160,294C2280,261,2400,131,2520,98C2640,65,2760,131,2880,187.8C3000,245,3120,294,3240,285.8C3360,278,3480,212,3600,155.2C3720,98,3840,49,3960,49C4080,49,4200,98,4320,155.2C4440,212,4560,278,4680,285.8C4800,294,4920,245,5040,228.7C5160,212,5280,229,5400,220.5C5520,212,5640,180,5760,147C5880,114,6000,82,6120,106.2C6240,131,6360,212,6480,245C6600,278,6720,261,6840,269.5C6960,278,7080,310,7200,277.7C7320,245,7440,147,7560,89.8C7680,33,7800,16,7920,73.5C8040,131,8160,261,8280,261.3C8400,261,8520,131,8580,65.3L8640,0L8640,490L8580,490C8520,490,8400,490,8280,490C8160,490,8040,490,7920,490C7800,490,7680,490,7560,490C7440,490,7320,490,7200,490C7080,490,6960,490,6840,490C6720,490,6600,490,6480,490C6360,490,6240,490,6120,490C6000,490,5880,490,5760,490C5640,490,5520,490,5400,490C5280,490,5160,490,5040,490C4920,490,4800,490,4680,490C4560,490,4440,490,4320,490C4200,490,4080,490,3960,490C3840,490,3720,490,3600,490C3480,490,3360,490,3240,490C3120,490,3000,490,2880,490C2760,490,2640,490,2520,490C2400,490,2280,490,2160,490C2040,490,1920,490,1800,490C1680,490,1560,490,1440,490C1320,490,1200,490,1080,490C960,490,840,490,720,490C600,490,480,490,360,490C240,490,120,490,60,490L0,490Z"/></svg>